<?xml version="1.0" encoding="utf-8"?>
<!-- Generator: Adobe Illustrator 26.0.2, SVG Export Plug-In . SVG Version: 6.00 Build 0)  -->
<svg version="1.1" id="レイヤー_1" xmlns="http://www.w3.org/2000/svg" xmlns:xlink="http://www.w3.org/1999/xlink" x="0px"
	 y="0px" viewBox="0 0 363.5 318.2" style="enable-background:new 0 0 363.5 318.2;" xml:space="preserve">
<style type="text/css">
	.st0{fill:none;stroke:#000000;stroke-width:21;stroke-miterlimit:10;}
</style>
<path class="st0" d="M271.2,7.5l-82.5,2c-5.9,0.1-11.6,2.6-15.8,6.8L14.3,174.9c-9,9-9,23.6,0,32.6c0,0,0,0,0,0L94.8,288
	c9,9,23.6,9,32.6,0c0,0,0,0,0,0L286,129.4c4.2-4.2,6.6-9.8,6.8-15.8l2-82.5c0.3-12.7-9.8-23.3-22.5-23.6
	C271.9,7.5,271.5,7.5,271.2,7.5z"/>
<path class="st0" d="M332.4,23.4l-38.5,0.9c0.6,2.2,0.9,4.5,0.9,6.8L294,64.7c11.3,0.1,20.5,9.3,20.4,20.6s-9.3,20.5-20.6,20.4
	c-0.3,0-0.5,0-0.8,0l-0.2,7.9c-0.2,5.9-2.6,11.6-6.8,15.7L133.8,281.7l22.2,22.3c9,9,23.6,9,32.6,0c0,0,0,0,0,0l158.7-158.6
	c4.2-4.2,6.6-9.8,6.8-15.8l2-82.5c0.3-12.7-9.8-23.3-22.5-23.6C333.1,23.4,332.8,23.4,332.4,23.4z"/>
<path class="st0" d="M308.7,99.8c8-8,8-21-0.1-29c-3.9-3.9-9.2-6-14.7-6l-1,41C298.8,106.1,304.6,103.9,308.7,99.8z"/>
<circle class="st0" cx="232.9" cy="69.4" r="20.5"/>
</svg>
